<svg xmlns="http://www.w3.org/2000/svg" viewBox="0 0 449.87 314.44"><defs><style>.cls-1{isolation:isolate;}.cls-2{fill:#8a009e;}.cls-3{fill:#fff;}</style></defs><title>just-a-dance-logo</title><g id="Layer_2" data-name="Layer 2"><g id="Layer_1-2" data-name="Layer 1"><g class="cls-1"><polygon class="cls-2" points="413 95.29 395.47 123.38 333.63 31.93 351.17 3.83 413 95.29"/><polygon class="cls-3" points="326.48 112.76 308.95 140.85 318.62 34.96 336.15 6.87 326.48 112.76"/><polygon class="cls-2" points="351.17 3.83 333.63 31.93 318.62 34.96 336.15 6.87 351.17 3.83"/><path class="cls-2" d="M315.22,32.85,332.75,4.76a3.52,3.52,0,0,0-.52,1.57L314.69,34.42A3.53,3.53,0,0,1,315.22,32.85Z"/><polygon class="cls-3" points="368.89 62.8 351.36 90.89 333.16 62.27 350.7 34.18 368.89 62.8"/><polygon class="cls-2" points="362.66 60.09 345.12 88.19 336.39 74.46 353.92 46.37 362.66 60.09"/><path class="cls-2" d="M416.4,97.41,398.86,125.5a3.67,3.67,0,0,1-2.4,1.65L414,99.06A3.69,3.69,0,0,0,416.4,97.41Z"/><polygon class="cls-2" points="348.75 66.87 331.21 94.96 333.16 62.27 350.7 34.18 348.75 66.87"/><path class="cls-2" d="M348.75,66.87l1.95-32.69L368.9,62.8Zm13.91-6.78-8.74-13.72L353,62l9.67-1.95"/><polygon class="cls-2" points="368.89 62.8 351.36 90.89 331.21 94.96 348.75 66.87 368.89 62.8"/><polygon class="cls-3" points="392.51 99.43 374.98 127.52 362.37 108.04 379.9 79.95 392.51 99.43"/><polygon class="cls-3" points="413 95.29 395.47 123.38 374.98 127.52 392.51 99.43 413 95.29"/><polygon class="cls-2" points="413.99 99.06 396.46 127.15 375.97 131.28 393.5 103.19 413.99 99.06"/><polygon class="cls-2" points="389.21 101.36 371.67 129.45 360.62 112.36 378.16 84.27 389.21 101.36"/><path class="cls-2" d="M393.5,103.19,376,131.28a4.19,4.19,0,0,1-4.3-1.83l17.54-28.09A4.2,4.2,0,0,0,393.5,103.19Z"/><polygon class="cls-3" points="379.9 79.95 362.37 108.04 330.35 114.51 347.89 86.42 379.9 79.95"/><polygon class="cls-2" points="378.16 84.27 360.62 112.36 334.11 117.71 351.65 89.62 378.16 84.27"/><polygon class="cls-2" points="346.51 108.71 328.97 136.81 330.35 114.51 347.89 86.42 346.51 108.71"/><path class="cls-2" d="M349.91,110.84l-17.54,28.09a3.67,3.67,0,0,1-2.41,1.64l17.54-28.09A3.67,3.67,0,0,0,349.91,110.84Z"/><polygon class="cls-3" points="346.51 108.71 328.97 136.81 308.95 140.85 326.48 112.76 346.51 108.71"/><path class="cls-2" d="M416.26,93.29a3.84,3.84,0,0,1,.43,3.54,3.66,3.66,0,0,1-2.7,2.23l-20.49,4.13a4.2,4.2,0,0,1-4.29-1.83l-11-17.09-26.51,5.35-1.21,19.52a3.59,3.59,0,0,1-2.94,3.34l-20,4a4.14,4.14,0,0,1-3.53-1,4,4,0,0,1-1.38-3.33L332.23,6.33a3.62,3.62,0,0,1,2.93-3.22l15-3a4.19,4.19,0,0,1,4.25,1.76Zm-23.75,6.14L413,95.29,351.17,3.84l-15,3-9.67,105.89,20-4.05,1.38-22.3,32-6.46,12.61,19.48"/><path class="cls-3" d="M351.17,3.84,413,95.29l-20.49,4.14L379.9,80l-32,6.47-1.38,22.29-20,4.05L336.15,6.87Zm-2.42,63L368.9,62.8,350.7,34.18l-1.95,32.69"/><polygon class="cls-2" points="322.56 112.22 305.02 140.31 314.69 34.42 332.23 6.33 322.56 112.22"/><polygon class="cls-2" points="347.5 112.48 329.96 140.57 309.94 144.62 327.47 116.52 347.5 112.48"/><path class="cls-2" d="M327.47,116.52l-17.53,28.09a4.13,4.13,0,0,1-3.53-1,4,4,0,0,1-1.39-3.33l17.54-28.09a4,4,0,0,0,1.38,3.33A4.14,4.14,0,0,0,327.47,116.52Z"/></g><g class="cls-1"><polygon class="cls-2" points="423.15 125.44 405.61 153.53 400.33 133.45 417.86 105.36 423.15 125.44"/><path class="cls-2" d="M426.54,127.55,409,155.65a3.67,3.67,0,0,1-2.4,1.64l17.53-28.09A3.73,3.73,0,0,0,426.54,127.55Z"/><polygon class="cls-2" points="417.86 105.36 400.33 133.45 344.32 144.76 361.85 116.67 417.86 105.36"/><polygon class="cls-3" points="423.15 125.44 405.61 153.53 367.76 161.17 385.3 133.08 423.15 125.44"/><polygon class="cls-2" points="424.13 129.2 406.6 157.29 372.57 164.16 390.1 136.07 424.13 129.2"/><path class="cls-2" d="M340.92,142.65l17.53-28.09a3.62,3.62,0,0,0-.41,2.88L340.5,145.53A3.66,3.66,0,0,1,340.92,142.65Z"/><polygon class="cls-2" points="431.17 164.33 413.63 192.43 408.35 172.35 425.88 144.26 431.17 164.33"/><path class="cls-2" d="M434.56,166.45,417,194.55a3.63,3.63,0,0,1-2.41,1.64l17.54-28.09A3.65,3.65,0,0,0,434.56,166.45Z"/><polygon class="cls-2" points="390.14 151.48 372.6 179.57 367.76 161.17 385.3 133.08 390.14 151.48"/><polygon class="cls-2" points="425.88 144.26 408.35 172.35 372.6 179.57 390.14 151.48 425.88 144.26"/><polygon class="cls-3" points="431.17 164.33 413.63 192.43 377.88 199.64 395.42 171.55 431.17 164.33"/><polygon class="cls-2" points="432.16 168.1 414.62 196.19 382.69 202.64 400.23 174.54 432.16 168.1"/><polygon class="cls-2" points="445.92 203.63 428.39 231.72 423.11 211.65 440.64 183.56 445.92 203.63"/><path class="cls-2" d="M449.32,205.75l-17.54,28.09a3.65,3.65,0,0,1-2.4,1.65l17.53-28.09A3.68,3.68,0,0,0,449.32,205.75Z"/><polygon class="cls-2" points="400.7 191.62 383.17 219.71 377.88 199.64 395.42 171.55 400.7 191.62"/><polygon class="cls-2" points="440.64 183.56 423.11 211.65 383.17 219.71 400.7 191.62 440.64 183.56"/><polygon class="cls-3" points="445.92 203.63 428.39 231.72 370.28 243.45 387.82 215.36 445.92 203.63"/><polygon class="cls-3" points="387.82 215.36 370.28 243.45 344.32 144.76 361.85 116.67 387.82 215.36"/><path class="cls-2" d="M439.65,179.8a4.18,4.18,0,0,1,4.81,3l5.28,20.07a3.63,3.63,0,0,1-2.83,4.54l-58.1,11.73a4.19,4.19,0,0,1-4.81-3l-26-98.69a3.62,3.62,0,0,1,2.82-4.53l56-11.31a4.17,4.17,0,0,1,4.8,3L427,124.67a3.62,3.62,0,0,1-2.82,4.53l-34,6.87L393,147l31.93-6.45a4.17,4.17,0,0,1,4.8,3L435,163.56a3.63,3.63,0,0,1-2.82,4.54l-31.93,6.45,3.3,12.54Zm6.27,23.83-5.28-20.07-39.94,8.06-5.28-20.07,35.75-7.22-5.28-20.07-35.75,7.22-4.84-18.4,37.85-7.64-5.29-20.08-56,11.31,26,98.69,58.1-11.73"/><polygon class="cls-3" points="417.86 105.36 423.15 125.44 385.3 133.08 390.14 151.48 425.88 144.26 431.17 164.33 395.42 171.55 400.7 191.62 440.64 183.56 445.92 203.63 387.82 215.36 361.85 116.67 417.86 105.36"/><polygon class="cls-2" points="446.91 207.4 429.38 235.49 371.27 247.22 388.81 219.13 446.91 207.4"/><polygon class="cls-2" points="384 216.13 366.47 244.22 340.5 145.53 358.04 117.44 384 216.13"/><path class="cls-2" d="M388.81,219.13l-17.54,28.09a4.15,4.15,0,0,1-4.8-3L384,216.13A4.19,4.19,0,0,0,388.81,219.13Z"/></g><g class="cls-1"><polygon class="cls-2" points="270.86 40.31 253.33 68.41 248.27 49.16 265.8 21.07 270.86 40.31"/><path class="cls-2" d="M274.26,42.43,256.73,70.52a3.68,3.68,0,0,1-2.41,1.64l17.53-28.09A3.63,3.63,0,0,0,274.26,42.43Z"/><polygon class="cls-2" points="265.8 21.07 248.27 49.16 183.06 62.33 200.59 34.24 265.8 21.07"/><polygon class="cls-2" points="271.01 135.01 253.48 163.1 229.81 73.15 247.35 45.06 271.01 135.01"/><polygon class="cls-3" points="270.86 40.31 253.33 68.41 229.81 73.15 247.35 45.06 270.86 40.31"/><polygon class="cls-2" points="254.43 71.98 271.85 44.07 252.14 48.05 249.32 52.57 254.43 71.98"/><path class="cls-2" d="M179.66,60.22l17.54-28.1a3.69,3.69,0,0,0-.42,2.89L179.24,63.1A3.66,3.66,0,0,1,179.66,60.22Z"/><polygon class="cls-3" points="205.66 53.48 188.12 81.57 183.06 62.33 200.59 34.24 205.66 53.48"/><polygon class="cls-2" points="198.13 40.15 180.6 68.25 179.24 63.1 196.78 35.01 198.13 40.15"/><polygon class="cls-2" points="199.55 45.54 182.01 73.63 180.6 68.25 198.13 40.15 199.55 45.54"/><polygon class="cls-3" points="229.18 48.73 211.65 76.82 188.12 81.57 205.66 53.48 229.18 48.73"/><polygon class="cls-2" points="226.35 53.26 208.82 81.35 189.11 85.33 206.65 57.24 226.35 53.26"/><polygon class="cls-2" points="201.84 54.25 184.31 82.34 182.01 73.63 199.55 45.54 201.84 54.25"/><path class="cls-2" d="M206.65,57.24,189.11,85.33a4.17,4.17,0,0,1-4.8-3l17.53-28.09A4.19,4.19,0,0,0,206.65,57.24Z"/><path class="cls-2" d="M278.64,167.8l17.53-28.1A38,38,0,0,1,306,129.12a42.4,42.4,0,0,1,16.87-7.22,37.05,37.05,0,0,1,7.48-.7,36.6,36.6,0,0,1,8.09.93,34.67,34.67,0,0,1,8.22,3,35.08,35.08,0,0,1,7.86,5.6L337,158.87a35.09,35.09,0,0,0-7.85-5.61,35.45,35.45,0,0,0-8.22-3,37.75,37.75,0,0,0-15.57-.23,42.34,42.34,0,0,0-16.87,7.22A37.75,37.75,0,0,0,278.64,167.8Z"/><polygon class="cls-3" points="354.53 130.77 336.99 158.87 326.61 175.35 344.14 147.26 354.53 130.77"/><polygon class="cls-2" points="357.91 132.91 340.38 161 329.99 177.48 347.53 149.39 357.91 132.91"/><path class="cls-2" d="M347.53,149.39,330,177.48a3.64,3.64,0,0,1-2.39,1.63c-.12,0-.25,0-.38.06l17.54-28.09.37-.06A3.68,3.68,0,0,0,347.53,149.39Z"/><polygon class="cls-2" points="187.97 62.18 170.43 90.28 178.61 71.45 196.14 43.36 187.97 62.18"/><path class="cls-2" d="M191.37,64.3,173.83,92.39a3.66,3.66,0,0,1-2.4,1.65L189,66A3.72,3.72,0,0,0,191.37,64.3Z"/><path class="cls-3" d="M300,174.7a21.07,21.07,0,0,0-4.09,4.81l17.54-28.09a21.28,21.28,0,0,1,4.08-4.81,19,19,0,0,1,8.87-4.29,19.87,19.87,0,0,1,9.58.27l-17.54,28.09L336,142.59a20.72,20.72,0,0,1,8.15,4.67l-17.53,28.09a20.69,20.69,0,0,0-8.16-4.67,20,20,0,0,0-9.57-.27A19,19,0,0,0,300,174.7Z"/><path class="cls-2" d="M299.31,181.63l17.54-28.09a17.59,17.59,0,0,1,3.4-4,15.15,15.15,0,0,1,7.15-3.45,15.65,15.65,0,0,1,7.64.19,16.37,16.37,0,0,1,6.51,3.74,4.24,4.24,0,0,0,3.21,1.07l-17.54,28.09A4.2,4.2,0,0,1,324,178.1a16.3,16.3,0,0,0-6.51-3.74,15.61,15.61,0,0,0-7.63-.19,15.2,15.2,0,0,0-7.15,3.45A17.88,17.88,0,0,0,299.31,181.63Z"/><path class="cls-2" d="M130.46,79.43,148,51.34l.45-.7a27.25,27.25,0,0,1,8.48-8.1,34.26,34.26,0,0,1,11.23-4.39,40.62,40.62,0,0,1,14.13-.36,33.39,33.39,0,0,1,13.85,5.57L178.61,71.45a33.58,33.58,0,0,0-13.85-5.57,40.85,40.85,0,0,0-14.13.36,34.2,34.2,0,0,0-11.24,4.4,27.18,27.18,0,0,0-8.47,8.09C130.76,79,130.61,79.19,130.46,79.43Z"/><path class="cls-3" d="M148.12,90.31a8.65,8.65,0,0,0-1.2,1.51l17.53-28.09a8.78,8.78,0,0,1,1.21-1.52Q156.9,76.27,148.13,90.3q8.76-14,17.53-28.09a13.87,13.87,0,0,1,3.5-2.54,15.9,15.9,0,0,1,3.93-1.38h0l-5.34,8.55L162,76l-6.47,10.37q8.76-14.05,17.53-28.09a19.32,19.32,0,0,1,7.58.16h0c-15.5-1.87-11.69,18.73-17.54,28.09l17.54-28.09A14.73,14.73,0,0,1,188,62.18l-17.54,28.1a14.67,14.67,0,0,0-7.29-3.74,19.32,19.32,0,0,0-7.58-.16,15.62,15.62,0,0,0-3.93,1.38A13.72,13.72,0,0,0,148.12,90.31Z"/><path class="cls-2" d="M150.31,93.94l17.54-28.09a5,5,0,0,1,.71-.9,10.08,10.08,0,0,1,2.55-1.85,11.49,11.49,0,0,1,3-1.05,15.37,15.37,0,0,1,6,.16,10.52,10.52,0,0,1,5.24,2.67A4.21,4.21,0,0,0,189,66L171.43,94A4.18,4.18,0,0,1,167.79,93a10.45,10.45,0,0,0-5.24-2.68,15.42,15.42,0,0,0-6-.16,12,12,0,0,0-3,1A10.39,10.39,0,0,0,151,93,5.51,5.51,0,0,0,150.31,93.94Z"/><polygon class="cls-2" points="375.47 202.45 357.93 230.54 339.24 220.07 356.77 191.98 375.47 202.45"/><path class="cls-3" d="M336.66,226.15a21.94,21.94,0,0,0,2.58-6.08q7.74-12.4,15.49-24.81l2-3.28a22.36,22.36,0,0,1-2.57,6.08Z"/><path class="cls-2" d="M350.8,196,333.26,224a18.79,18.79,0,0,0,2.16-5.1,3.65,3.65,0,0,1,.42-1l17.54-28.09a3.74,3.74,0,0,0-.43,1A18.41,18.41,0,0,1,350.8,196Z"/><path class="cls-2" d="M371.61,211.15l-17.53,28.09a35.53,35.53,0,0,0,3.85-8.7l17.54-28.09A35.18,35.18,0,0,1,371.61,211.15Z"/><polygon class="cls-2" points="130.85 48.32 113.32 76.41 95.15 80.08 112.69 51.98 130.85 48.32"/><path class="cls-2" d="M91.76,78,109.3,49.87a3.66,3.66,0,0,0-.42,2.88L91.35,80.84A3.63,3.63,0,0,1,91.76,78Z"/><path class="cls-2" d="M146.92,91.82l17.53-28.09a9.35,9.35,0,0,0-1,2.23,9.09,9.09,0,0,0,.08,5,9.3,9.3,0,0,0,4.59,6.26,27,27,0,0,0,8.11,2.62q4.69.81,10,1.5a37.82,37.82,0,0,1,10.39,2.9,26.81,26.81,0,0,1,9.21,6.8q4.15,4.59,6.43,13.24a37.73,37.73,0,0,1,1.21,14.87L196,147.22a37.37,37.37,0,0,0-1.21-14.87q-2.26-8.64-6.42-13.24a26.93,26.93,0,0,0-9.22-6.8,37.36,37.36,0,0,0-10.39-2.89c-3.55-.46-6.89-1-10-1.51a27.22,27.22,0,0,1-8.11-2.61A9.39,9.39,0,0,1,146,99a9.06,9.06,0,0,1-.08-5A8.9,8.9,0,0,1,146.92,91.82Z"/><path class="cls-3" d="M354.08,239.24a29.08,29.08,0,0,1-6,6.94l17.53-28.09a29,29,0,0,0,6-6.94Z"/><path class="cls-3" d="M348.07,246.18h0q8.76-14,17.53-28.09h0l-8.76,14-2.3,3.67q-1.67,2.69-3.35,5.37l-2.11,3.39A15.57,15.57,0,0,1,348.07,246.18Z"/><polygon class="cls-3" points="255.7 149.53 238.17 177.62 211.65 76.82 229.18 48.73 255.7 149.53"/><polygon class="cls-2" points="251.91 150.4 234.38 178.5 208.82 81.35 226.35 53.26 251.91 150.4"/><path class="cls-3" d="M194.77,114.84h0q-7.76,12.41-15.49,24.81Q187,127.24,194.77,114.84Z"/><path class="cls-3" d="M126.57,90.18a28.64,28.64,0,0,1,3.89-10.75L148,51.34a28.41,28.41,0,0,0-3.89,10.75,34.91,34.91,0,0,0,1,14.47q2.16,8.22,6.33,12.67a27.78,27.78,0,0,0,9.29,6.63L143.24,124l17.54-28.09a41.82,41.82,0,0,0,10.59,3L153.84,127a42.21,42.21,0,0,1-10.6-3,27.74,27.74,0,0,1-9.29-6.63q-4.17-4.45-6.33-12.67A35.07,35.07,0,0,1,126.57,90.18Z"/><path class="cls-3" d="M164.11,128.7c-3.19-.63-6.61-1.22-10.27-1.74l17.53-28.1q5.49.8,10.28,1.74a28.21,28.21,0,0,1,8.32,3l-17.54,28.09L190,103.55a10,10,0,0,1,4.7,6.47l-17.54,28.09L194.67,110a9.28,9.28,0,0,1,.1,4.81,9.5,9.5,0,0,1-1.08,2.5l-17.54,28.09a9,9,0,0,0,1.08-2.49l17.54-28.09h0l-17.54,28.09h0a9.11,9.11,0,0,0-.1-4.82,10,10,0,0,0-4.7-6.47A27.83,27.83,0,0,0,164.11,128.7Z"/><path class="cls-2" d="M354.2,198.06l-17.54,28.09a18.19,18.19,0,0,1-2.48,3.16A17.16,17.16,0,0,1,325,234.1a19.56,19.56,0,0,1-9.77-.52,26.09,26.09,0,0,1-9.13-5.14,37.17,37.17,0,0,1-7.59-9A46.37,46.37,0,0,1,293.36,207,44,44,0,0,1,291.84,194a31.56,31.56,0,0,1,2.35-11.12,23.9,23.9,0,0,1,1.73-3.34l17.54-28.09a23.4,23.4,0,0,0-1.74,3.34,31.73,31.73,0,0,0-2.35,11.12,44.07,44.07,0,0,0,1.53,13.05,45.84,45.84,0,0,0,5.16,12.38,37.26,37.26,0,0,0,7.59,9,26.1,26.1,0,0,0,9.14,5.13,19.41,19.41,0,0,0,9.76.53,17.19,17.19,0,0,0,9.17-4.79A19.09,19.09,0,0,0,354.2,198.06Z"/><path class="cls-2" d="M209.67,130.06l-17.54,28.09A27.6,27.6,0,0,0,196,147.22l17.54-28.09A27.76,27.76,0,0,1,209.67,130.06Z"/><path class="cls-2" d="M190.3,115.21,172.76,143.3a5.79,5.79,0,0,0,.67-1.54,5.51,5.51,0,0,0-.11-2.88,5.74,5.74,0,0,0-2.73-3.94,23.52,23.52,0,0,0-7.06-2.48c-3.11-.61-6.51-1.19-10.07-1.71a46.62,46.62,0,0,1-11.65-3.29,31.9,31.9,0,0,1-10.69-7.64,25.18,25.18,0,0,1-3.72-5.15,40.36,40.36,0,0,1-3.6-9.25,44,44,0,0,1-1.5-10.16,33.09,33.09,0,0,1,4.79-18L144.62,49.2a32.33,32.33,0,0,0-4.41,12.1,33,33,0,0,0-.38,5.86,44,44,0,0,0,1.51,10.17,40.08,40.08,0,0,0,3.6,9.25,25.53,25.53,0,0,0,3.71,5.15,32,32,0,0,0,10.7,7.64A46.93,46.93,0,0,0,171,102.66c3.56.52,6.95,1.1,10.07,1.71a23.55,23.55,0,0,1,7.05,2.47,6.86,6.86,0,0,1,2.85,6.83A6.09,6.09,0,0,1,190.3,115.21Z"/><path class="cls-2" d="M145.58,142.7l17.54-28.09a3,3,0,0,0-.25.47l-17.54,28.09A4.23,4.23,0,0,1,145.58,142.7Z"/><path class="cls-2" d="M193.69,117.33l-17.54,28.09a8.68,8.68,0,0,1-1,1.3,12.71,12.71,0,0,1-3.58,2.71,16.77,16.77,0,0,1-4.32,1.53,18.46,18.46,0,0,1-9.43-.66,22.52,22.52,0,0,1-8.87-5.48l17.54-28.1a22.39,22.39,0,0,0,8.86,5.49,18.5,18.5,0,0,0,9.44.66,16.91,16.91,0,0,0,4.32-1.53,12.66,12.66,0,0,0,3.57-2.71A9.49,9.49,0,0,0,193.69,117.33Z"/><polygon class="cls-2" points="146.81 108.96 129.27 137.05 113.32 76.41 130.85 48.32 146.81 108.96"/><path class="cls-3" d="M277.12,170.45c.48-.91,1-1.8,1.52-2.65l17.53-28.09c-.53.85-1,1.73-1.51,2.64a46.75,46.75,0,0,0-5,18.25A67,67,0,0,0,292,182.73a70.48,70.48,0,0,0,9,20.8l-17.54,28.09L301,203.53A53.94,53.94,0,0,0,314.57,218L297,246.13,314.57,218a44.84,44.84,0,0,0,16.82,7.54q-8.76,14-17.53,28.09,8.76-14.05,17.53-28.09a45.34,45.34,0,0,0,18.78,0q-8.78,14-17.53,28.09l17.53-28.09a34.29,34.29,0,0,0,15.43-7.52q-8.76,14.06-17.53,28.09a34.38,34.38,0,0,1-15.44,7.52,45.29,45.29,0,0,1-18.77,0A44.81,44.81,0,0,1,297,246.13a54.21,54.21,0,0,1-13.56-14.5,70.71,70.71,0,0,1-9-20.8,67,67,0,0,1-2.32-22.14A46.57,46.57,0,0,1,277.12,170.45Z"/><path class="cls-3" d="M322.88,121.9a37.05,37.05,0,0,1,7.48-.7,36.6,36.6,0,0,1,8.09.93,34.67,34.67,0,0,1,8.22,3,35.08,35.08,0,0,1,7.86,5.6l-10.39,16.49a20.72,20.72,0,0,0-8.15-4.67,19.87,19.87,0,0,0-9.58-.27,19,19,0,0,0-8.87,4.29,22.15,22.15,0,0,0-5.82,8.15,31.73,31.73,0,0,0-2.35,11.12,44.07,44.07,0,0,0,1.53,13.05,45.84,45.84,0,0,0,5.16,12.38,37.26,37.26,0,0,0,7.59,9,26.29,26.29,0,0,0,9.14,5.14,19.52,19.52,0,0,0,9.76.52,17.19,17.19,0,0,0,9.17-4.79,20.48,20.48,0,0,0,5-9.24l18.7,10.47a31.59,31.59,0,0,1-9.87,15.64,34.29,34.29,0,0,1-15.43,7.52,45.34,45.34,0,0,1-18.78,0A44.84,44.84,0,0,1,314.57,218,53.94,53.94,0,0,1,301,203.53a70.48,70.48,0,0,1-9-20.8,67,67,0,0,1-2.33-22.13,46.75,46.75,0,0,1,5-18.25A38,38,0,0,1,306,129.12,42.4,42.4,0,0,1,322.88,121.9Z"/><polygon class="cls-2" points="79.5 58.69 61.96 86.78 43.8 90.44 61.33 62.35 79.5 58.69"/><path class="cls-2" d="M377.29,199.14a4,4,0,0,1,2,4.55,35.08,35.08,0,0,1-11,17.37,38.21,38.21,0,0,1-17.09,8.31,49.67,49.67,0,0,1-20.43,0,49.13,49.13,0,0,1-18.39-8.25,58,58,0,0,1-14.62-15.61,74.87,74.87,0,0,1-9.5-22,71.37,71.37,0,0,1-2.44-23.4,50.2,50.2,0,0,1,5.36-19.64A41.64,41.64,0,0,1,303.55,126a46.27,46.27,0,0,1,18.34-7.86,42.52,42.52,0,0,1,8.27-.79,41.11,41.11,0,0,1,9,1,39.09,39.09,0,0,1,18,9.68,3.84,3.84,0,0,1,.73,4.84l-10.38,16.48a3.68,3.68,0,0,1-2.4,1.63l-.37.06a4.24,4.24,0,0,1-3.21-1.07,16.37,16.37,0,0,0-6.51-3.74,15.65,15.65,0,0,0-7.64-.19,15.15,15.15,0,0,0-7.15,3.45,18.63,18.63,0,0,0-4.88,6.86,28,28,0,0,0-2.07,9.84,40.22,40.22,0,0,0,1.42,11.93,41.6,41.6,0,0,0,4.7,11.31,33.18,33.18,0,0,0,6.73,8,22,22,0,0,0,7.66,4.32,15.25,15.25,0,0,0,7.75.41,13.36,13.36,0,0,0,7.24-3.75,16.89,16.89,0,0,0,4.15-7.65,3.63,3.63,0,0,1,2.21-2.45c.21-.07.41-.13.62-.18a4.23,4.23,0,0,1,2.82.46Zm-11.69,19a31.59,31.59,0,0,0,9.87-15.64L356.77,192a20.48,20.48,0,0,1-5,9.24,17.19,17.19,0,0,1-9.17,4.79,19.41,19.41,0,0,1-9.76-.53,26.1,26.1,0,0,1-9.14-5.13,37.26,37.26,0,0,1-7.59-9,45.84,45.84,0,0,1-5.16-12.38,44.07,44.07,0,0,1-1.53-13.05,31.73,31.73,0,0,1,2.35-11.12,22.15,22.15,0,0,1,5.82-8.15,19,19,0,0,1,8.87-4.29,19.87,19.87,0,0,1,9.58.27,20.72,20.72,0,0,1,8.15,4.67l10.39-16.49a35.08,35.08,0,0,0-7.86-5.6,34.67,34.67,0,0,0-8.22-3,36.6,36.6,0,0,0-8.09-.93,37.05,37.05,0,0,0-7.48.7A42.4,42.4,0,0,0,306,129.12a38,38,0,0,0-11.35,13.23,46.75,46.75,0,0,0-5,18.25A67,67,0,0,0,292,182.73a70.48,70.48,0,0,0,9,20.8A53.94,53.94,0,0,0,314.57,218a44.84,44.84,0,0,0,16.82,7.54,45.34,45.34,0,0,0,18.78,0,34.29,34.29,0,0,0,15.43-7.52"/><path class="cls-2" d="M375,213.27l-17.53,28.09a32.64,32.64,0,0,1-6.75,7.79,38.19,38.19,0,0,1-17.1,8.31,48.69,48.69,0,0,1-38.81-8.29,58.06,58.06,0,0,1-14.63-15.61,74.85,74.85,0,0,1-9.49-22,71,71,0,0,1-2.44-23.39,50.2,50.2,0,0,1,5.35-19.65c.52-1,1.07-2,1.66-2.9l17.53-28.09c-.59.94-1.14,1.91-1.65,2.9a50.2,50.2,0,0,0-5.36,19.64,71.37,71.37,0,0,0,2.44,23.4,74.87,74.87,0,0,0,9.5,22,58,58,0,0,0,14.62,15.61,49.13,49.13,0,0,0,18.39,8.25,49.67,49.67,0,0,0,20.43,0,38.21,38.21,0,0,0,17.09-8.31A32.39,32.39,0,0,0,375,213.27Z"/><path class="cls-2" d="M40.41,88.33,57.94,60.24a3.62,3.62,0,0,0-.41,2.88L40,91.21A3.67,3.67,0,0,1,40.41,88.33Z"/><polygon class="cls-2" points="296.98 233.7 279.44 261.79 253.48 163.1 271.01 135.01 296.98 233.7"/><polygon class="cls-3" points="238.17 177.62 255.7 149.53 270.54 206.86 253.01 234.95 238.17 177.62"/><polygon class="cls-2" points="263.04 192.68 245.5 220.77 234.38 178.5 251.91 150.4 263.04 192.68"/><path class="cls-3" d="M155.83,171.33a41.21,41.21,0,0,1-15.31-6.89l17.54-28.1a41,41,0,0,0,15.31,6.89L169.15,150l-13.32,21.33,17.54-28.09a39,39,0,0,0,15.67-.08q-8.76,14.06-17.53,28.09,8.76-14,17.53-28.09a37,37,0,0,0,11.66-4.41l-17.54,28.09,17.54-28.09a26.14,26.14,0,0,0,8.55-8l-17.53,28.09,17.53-28.09.42-.64-17.54,28.09c-.14.22-.27.43-.42.65a26.11,26.11,0,0,1-8.55,8,36.94,36.94,0,0,1-11.65,4.41A39.26,39.26,0,0,1,155.83,171.33Z"/><polygon class="cls-3" points="158.06 136.34 140.52 164.44 148.97 144.82 166.51 116.72 158.06 136.34"/><path class="cls-2" d="M213.05,132.18l-17.53,28.09L195,161a30,30,0,0,1-9.71,9.14A41,41,0,0,1,172.49,175a43.25,43.25,0,0,1-17.26.08,45.09,45.09,0,0,1-16.89-7.57,3.92,3.92,0,0,1-1.46-4.72l17.54-28.09a3.92,3.92,0,0,0,1.46,4.72A45.12,45.12,0,0,0,172.76,147a43.49,43.49,0,0,0,17.27-.08,40.74,40.74,0,0,0,12.84-4.86,30,30,0,0,0,9.71-9.13C212.74,132.68,212.9,132.43,213.05,132.18Z"/><polygon class="cls-2" points="270.89 207.26 253.36 235.35 200.03 173.89 217.56 145.8 270.89 207.26"/><polygon class="cls-3" points="270.66 207.31 253.13 235.4 253.01 234.95 270.54 206.86 270.66 207.31"/><polygon class="cls-3" points="273.22 238.5 255.69 266.59 201.22 203.6 218.75 175.51 273.22 238.5"/><polygon class="cls-2" points="270.26 240.89 252.73 268.98 208.83 218.2 226.37 190.11 270.26 240.89"/><polygon class="cls-2" points="237 245.81 219.47 273.9 200.99 203.65 218.52 175.56 237 245.81"/><polygon class="cls-3" points="218.84 249.48 201.3 277.57 175.34 178.88 192.87 150.78 218.84 249.48"/><polygon class="cls-2" points="217.56 145.8 200.03 173.89 175.34 178.88 192.87 150.78 217.56 145.8"/><polygon class="cls-3" points="128.42 111.79 110.89 139.88 95.15 80.08 112.69 51.98 128.42 111.79"/><path class="cls-2" d="M172,176.76l17.53-28.09a3.66,3.66,0,0,0-.42,2.88l-17.53,28.09A3.67,3.67,0,0,1,172,176.76Z"/><polygon class="cls-2" points="124.61 112.56 107.08 140.65 91.34 80.84 108.88 52.75 124.61 112.56"/><path class="cls-3" d="M168.16,38.15a40.62,40.62,0,0,1,14.13-.36,33.39,33.39,0,0,1,13.85,5.57L188,62.18a14.72,14.72,0,0,0-7.3-3.73,19.32,19.32,0,0,0-7.58-.16,15.9,15.9,0,0,0-3.93,1.38,13.87,13.87,0,0,0-3.5,2.54,8.73,8.73,0,0,0-2.2,3.75,9.09,9.09,0,0,0,.08,5,9.3,9.3,0,0,0,4.59,6.26,27,27,0,0,0,8.11,2.62q4.69.81,10,1.5a37.82,37.82,0,0,1,10.39,2.9,26.81,26.81,0,0,1,9.21,6.8q4.15,4.59,6.43,13.24a37.73,37.73,0,0,1,1.21,14.87,27.35,27.35,0,0,1-4.25,11.57,26.14,26.14,0,0,1-8.55,8A37,37,0,0,1,189,143.15a39,39,0,0,1-15.67.08,41,41,0,0,1-15.31-6.89l8.45-19.62a22.39,22.39,0,0,0,8.86,5.49,18.5,18.5,0,0,0,9.44.66,16.91,16.91,0,0,0,4.32-1.53,12.66,12.66,0,0,0,3.57-2.71,9.16,9.16,0,0,0,2.07-3.8,9.28,9.28,0,0,0-.1-4.81,10,10,0,0,0-4.7-6.47,28.21,28.21,0,0,0-8.32-3q-4.78-.94-10.28-1.74a41.82,41.82,0,0,1-10.59-3,27.78,27.78,0,0,1-9.29-6.63q-4.19-4.45-6.33-12.67a34.91,34.91,0,0,1-1-14.47,28.22,28.22,0,0,1,4.34-11.45,27.25,27.25,0,0,1,8.48-8.1A34.26,34.26,0,0,1,168.16,38.15Z"/><polygon class="cls-2" points="154.42 134.7 136.88 162.79 145.33 143.17 162.87 115.08 154.42 134.7"/><path class="cls-2" d="M208.76,88.56c3.19,3.55,5.66,8.56,7.34,14.93a41.65,41.65,0,0,1,1.3,16.36,31.18,31.18,0,0,1-4.82,13.07,30,30,0,0,1-9.71,9.13A40.74,40.74,0,0,1,190,146.91a43.49,43.49,0,0,1-17.27.08,45.12,45.12,0,0,1-16.88-7.57,3.92,3.92,0,0,1-1.46-4.72l8.45-19.62a3.64,3.64,0,0,1,2.65-2.11,4.24,4.24,0,0,1,3.71,1.12,18,18,0,0,0,7.2,4.47,14.21,14.21,0,0,0,7.39.54,12.9,12.9,0,0,0,3.33-1.18A9,9,0,0,0,189.7,116a5.7,5.7,0,0,0,1.27-2.33,6.86,6.86,0,0,0-2.85-6.83,23.55,23.55,0,0,0-7.05-2.47c-3.12-.61-6.51-1.19-10.07-1.71a46.93,46.93,0,0,1-11.65-3.29,32,32,0,0,1-10.7-7.64,25.53,25.53,0,0,1-3.71-5.15,40.08,40.08,0,0,1-3.6-9.25,44,44,0,0,1-1.51-10.17,33,33,0,0,1,.38-5.86,32.16,32.16,0,0,1,4.91-12.88,30.84,30.84,0,0,1,9.59-9.15,38.12,38.12,0,0,1,12.46-4.88,45.1,45.1,0,0,1,15.51-.4,37.79,37.79,0,0,1,15.45,6.16l1.42,5.39-7.94,18.3A3.67,3.67,0,0,1,189,66a4.21,4.21,0,0,1-3.64-1.07,10.52,10.52,0,0,0-5.24-2.67,15.37,15.37,0,0,0-6-.16,11.49,11.49,0,0,0-3,1.05A10.08,10.08,0,0,0,168.56,65a5.29,5.29,0,0,0-1.32,2.26,5.62,5.62,0,0,0,.12,3c.64,2.44,1.73,3.27,2.51,3.68a23.44,23.44,0,0,0,6.86,2.2c3.05.52,6.36,1,9.85,1.47a42.28,42.28,0,0,1,11.52,3.2A31.54,31.54,0,0,1,208.76,88.56Zm4.74,30.57a37.73,37.73,0,0,0-1.21-14.87Q210,95.6,205.86,91a26.81,26.81,0,0,0-9.21-6.8,37.82,37.82,0,0,0-10.39-2.9q-5.32-.69-10-1.5a27,27,0,0,1-8.11-2.62,9.3,9.3,0,0,1-4.59-6.26,9.09,9.09,0,0,1-.08-5,8.73,8.73,0,0,1,2.2-3.75,13.87,13.87,0,0,1,3.5-2.54,15.9,15.9,0,0,1,3.93-1.38,19.32,19.32,0,0,1,7.58.16,14.72,14.72,0,0,1,7.3,3.73l8.17-18.82a33.39,33.39,0,0,0-13.85-5.57,40.62,40.62,0,0,0-14.13.36,34.26,34.26,0,0,0-11.23,4.39,27.25,27.25,0,0,0-8.48,8.1,28.22,28.22,0,0,0-4.34,11.45,34.91,34.91,0,0,0,1,14.47q2.16,8.22,6.33,12.67a27.78,27.78,0,0,0,9.29,6.63,41.82,41.82,0,0,0,10.59,3q5.49.8,10.28,1.74a28.21,28.21,0,0,1,8.32,3,10,10,0,0,1,4.7,6.47,9.28,9.28,0,0,1,.1,4.81,9.16,9.16,0,0,1-2.07,3.8,12.66,12.66,0,0,1-3.57,2.71,16.91,16.91,0,0,1-4.32,1.53,18.5,18.5,0,0,1-9.44-.66,22.39,22.39,0,0,1-8.86-5.49l-8.45,19.62a41,41,0,0,0,15.31,6.89,39,39,0,0,0,15.67-.08,37,37,0,0,0,11.66-4.41,26.14,26.14,0,0,0,8.55-8,27.35,27.35,0,0,0,4.25-11.57"/><polygon class="cls-2" points="52.48 64.14 34.95 92.23 16.78 95.9 34.32 67.81 52.48 64.14"/><path class="cls-2" d="M13.39,93.78,30.93,65.69a3.69,3.69,0,0,0-.42,2.89L13,96.67A3.64,3.64,0,0,1,13.39,93.78Z"/><path class="cls-3" d="M111.91,148.63a29,29,0,0,0-1-8.75l17.53-28.09a28.91,28.91,0,0,1,1,8.75q-8.76,14-17.53,28.09,8.76-14.06,17.53-28.09a20.72,20.72,0,0,1-1.66,7.45h0Q119,142,110.25,156.08,119,142,127.78,128a15.5,15.5,0,0,1-1.09,2.06l-17.53,28.09a16.07,16.07,0,0,0,1.09-2.06A20.94,20.94,0,0,0,111.91,148.63Z"/><path class="cls-2" d="M123.29,128l-17.53,28.1a13.36,13.36,0,0,0,.86-1.64,17.37,17.37,0,0,0,1.35-6.15,25.5,25.5,0,0,0-.89-7.61l17.53-28.09a25.49,25.49,0,0,1,.9,7.6,17.16,17.16,0,0,1-1.36,6.16A12,12,0,0,1,123.29,128Z"/><path class="cls-2" d="M300.37,235.83l-17.54,28.09a3.63,3.63,0,0,1-2.4,1.64L298,237.47A3.63,3.63,0,0,0,300.37,235.83Z"/><path class="cls-2" d="M144,142.79l-17.54,28.1a25.86,25.86,0,0,0,1.66-3.07,36.19,36.19,0,0,0,3.2-14.15,57.51,57.51,0,0,0-2-16.62L146.81,109a57.48,57.48,0,0,1,2,16.61,36.2,36.2,0,0,1-3.2,14.16A30,30,0,0,1,144,142.79Z"/><polygon class="cls-2" points="95.23 118.49 77.7 146.58 61.96 86.78 79.5 58.69 95.23 118.49"/><polygon class="cls-3" points="296.98 233.7 279.44 261.79 255.69 266.59 273.22 238.5 296.98 233.7"/><path class="cls-2" d="M126.69,130.05l-17.53,28.09a14.78,14.78,0,0,1-3,3.46,13.54,13.54,0,0,1-6.22,3,14.91,14.91,0,0,1-7.12-.26,17.55,17.55,0,0,1-6.46-3.39,23.34,23.34,0,0,1-5.22-6.06,30.22,30.22,0,0,1-3.46-8.26l17.53-28.09a30.34,30.34,0,0,0,3.47,8.25,23.39,23.39,0,0,0,5.21,6.07,17.59,17.59,0,0,0,6.47,3.39,15,15,0,0,0,7.12.26,13.5,13.5,0,0,0,6.21-3A14.55,14.55,0,0,0,126.69,130.05Z"/><polygon class="cls-2" points="297.97 237.47 280.43 265.56 256.68 270.36 274.21 242.26 297.97 237.47"/><path class="cls-2" d="M274.21,242.26l-17.53,28.1a4.19,4.19,0,0,1-4-1.38l17.53-28.09A4.17,4.17,0,0,0,274.21,242.26Z"/><polygon class="cls-3" points="77.29 122.99 59.75 151.09 43.8 90.44 61.33 62.35 77.29 122.99"/><path class="cls-3" d="M66.22,166.81a60.32,60.32,0,0,1-6.47-15.73L77.29,123a60,60,0,0,0,6.47,15.73L66.22,166.81l17.54-28.09a41.81,41.81,0,0,0,9.95,11.5q-8.77,14-17.53,28.09,8.76-14,17.53-28.09a33.61,33.61,0,0,0,13.13,6.29L89.3,184.6l17.54-28.08a36.87,36.87,0,0,0,15.94,0l-17.53,28.09,17.53-28.09h0a34.05,34.05,0,0,0,14.22-6.1q-8.77,14-17.53,28.08L137,150.42a28.73,28.73,0,0,0,7-7.63l-17.54,28.1a28.71,28.71,0,0,1-7,7.63,34.07,34.07,0,0,1-14.21,6.1,36.77,36.77,0,0,1-16,0,33.7,33.7,0,0,1-13.13-6.3A41.67,41.67,0,0,1,66.22,166.81Z"/><path class="cls-2" d="M147.38,144.91,129.85,173a32.47,32.47,0,0,1-7.85,8.59,38,38,0,0,1-15.77,6.79,40.9,40.9,0,0,1-17.67,0,38.17,38.17,0,0,1-14.76-7.09,45.81,45.81,0,0,1-10.95-12.64,64.54,64.54,0,0,1-6.91-16.76l17.54-28.09a64.53,64.53,0,0,0,6.9,16.76,46,46,0,0,0,11,12.64,38.13,38.13,0,0,0,14.75,7.09,41,41,0,0,0,17.68,0,38.12,38.12,0,0,0,15.76-6.79A32.47,32.47,0,0,0,147.38,144.91Z"/><polygon class="cls-2" points="213.63 244.94 196.1 273.03 171.53 179.64 189.06 151.55 213.63 244.94"/><polygon class="cls-2" points="215.03 250.25 197.5 278.34 196.1 273.03 213.63 244.94 215.03 250.25"/><polygon class="cls-2" points="212.91 250.68 195.38 278.77 133.54 187.31 151.08 159.22 212.91 250.68"/><polygon class="cls-3" points="126.39 268.14 108.86 296.23 118.52 190.35 136.06 162.25 126.39 268.14"/><polygon class="cls-2" points="151.08 159.22 133.54 187.31 118.52 190.35 136.06 162.25 151.08 159.22"/><polygon class="cls-2" points="73.48 123.76 55.95 151.85 39.99 91.21 57.53 63.12 73.48 123.76"/><path class="cls-2" d="M115.13,188.23l17.54-28.09a3.53,3.53,0,0,0-.53,1.58L114.6,189.81A3.66,3.66,0,0,1,115.13,188.23Z"/><polygon class="cls-2" points="69.76 129.8 52.22 157.89 34.95 92.23 52.48 64.14 69.76 129.8"/><path class="cls-3" d="M130.85,48.32l16,60.64a57.48,57.48,0,0,1,2,16.61,36.2,36.2,0,0,1-3.2,14.16,28.57,28.57,0,0,1-8.65,10.7,34.05,34.05,0,0,1-14.22,6.1,36.71,36.71,0,0,1-15.94,0,33.61,33.61,0,0,1-13.13-6.29,42,42,0,0,1-9.95-11.5A60,60,0,0,1,77.29,123l-16-60.64L79.5,58.68l15.73,59.81a30.34,30.34,0,0,0,3.47,8.25,23.39,23.39,0,0,0,5.21,6.07,17.59,17.59,0,0,0,6.47,3.39,15,15,0,0,0,7.12.26,13.5,13.5,0,0,0,6.21-3,15.08,15.08,0,0,0,4.07-5.52,20.72,20.72,0,0,0,1.66-7.45,28.91,28.91,0,0,0-1-8.75L112.69,52Z"/><path class="cls-2" d="M134.67,47.55l5.16,19.61a44,44,0,0,0,1.51,10.17,40.08,40.08,0,0,0,3.6,9.25l5.68,21.61a61.51,61.51,0,0,1,2.17,17.71,40.1,40.1,0,0,1-3.54,15.56,32.32,32.32,0,0,1-9.72,12,38.12,38.12,0,0,1-15.76,6.79,41,41,0,0,1-17.68,0,38.13,38.13,0,0,1-14.75-7.09,46,46,0,0,1-11-12.64,64.53,64.53,0,0,1-6.9-16.76l-16-60.64a3.62,3.62,0,0,1,2.82-4.53l18.16-3.66a4.16,4.16,0,0,1,4.8,3l15.74,59.81a26.14,26.14,0,0,0,3,7.18,19.55,19.55,0,0,0,4.29,5,13.34,13.34,0,0,0,5,2.6,11,11,0,0,0,5.22.17,9.77,9.77,0,0,0,4.53-2.13,11.33,11.33,0,0,0,3.11-4.24,17.16,17.16,0,0,0,1.36-6.16,25.49,25.49,0,0,0-.9-7.6L108.88,52.75a3.62,3.62,0,0,1,2.82-4.52l18.16-3.67A4.17,4.17,0,0,1,134.67,47.55ZM146.81,109l-16-60.64L112.69,52l15.73,59.81a28.91,28.91,0,0,1,1,8.75,20.72,20.72,0,0,1-1.66,7.45,15.08,15.08,0,0,1-4.07,5.52,13.5,13.5,0,0,1-6.21,3,15,15,0,0,1-7.12-.26,17.59,17.59,0,0,1-6.47-3.39,23.39,23.39,0,0,1-5.21-6.07,30.34,30.34,0,0,1-3.47-8.25L79.5,58.68,61.33,62.35l16,60.64a60,60,0,0,0,6.47,15.73,42,42,0,0,0,9.95,11.5,33.61,33.61,0,0,0,13.13,6.29,36.71,36.71,0,0,0,15.94,0,34.05,34.05,0,0,0,14.22-6.1,28.57,28.57,0,0,0,8.65-10.7,36.2,36.2,0,0,0,3.2-14.16,57.48,57.48,0,0,0-2-16.61"/><polygon class="cls-3" points="50.97 131.09 33.43 159.19 16.78 95.9 34.32 67.81 50.97 131.09"/><path class="cls-2" d="M240.4,247.93,222.87,276a3.67,3.67,0,0,1-2.41,1.65L238,249.58A3.68,3.68,0,0,0,240.4,247.93Z"/><polygon class="cls-2" points="47.16 131.86 29.63 159.96 12.97 96.67 30.51 68.58 47.16 131.86"/><polygon class="cls-3" points="168.8 218.19 151.26 246.28 133.07 217.66 150.6 189.56 168.8 218.19"/><polygon class="cls-3" points="237 245.81 219.47 273.9 201.3 277.57 218.84 249.48 237 245.81"/><polygon class="cls-2" points="162.56 215.48 145.02 243.57 136.29 229.85 153.83 201.75 162.56 215.48"/><path class="cls-2" d="M219.83,253.24l-17.54,28.1a4.11,4.11,0,0,1-3.33-.81,4.06,4.06,0,0,1-1.46-2.19L215,250.25a4.18,4.18,0,0,0,4.8,3Z"/><path class="cls-2" d="M216.3,252.8l-17.54,28.09a3.61,3.61,0,0,1-2.39,1.64l17.53-28.09A3.66,3.66,0,0,0,216.3,252.8Z"/><polygon class="cls-2" points="148.65 222.25 131.12 250.35 133.07 217.66 150.6 189.56 148.65 222.25"/><polygon class="cls-2" points="168.8 218.19 151.26 246.28 131.12 250.35 148.65 222.25 168.8 218.19"/><path class="cls-2" d="M148.65,222.25l1.95-32.69,18.2,28.63Zm13.91-6.77-8.73-13.73-.94,15.68,9.67-2"/><polygon class="cls-3" points="192.41 254.81 174.88 282.9 162.28 263.43 179.81 235.34 192.41 254.81"/><polygon class="cls-3" points="212.91 250.68 195.38 278.77 174.88 282.9 192.41 254.81 212.91 250.68"/><polygon class="cls-3" points="179.81 235.34 162.28 263.43 130.25 269.89 147.79 241.8 179.81 235.34"/><polygon class="cls-2" points="178.06 239.66 160.52 267.75 134.01 273.1 151.55 245.01 178.06 239.66"/><polygon class="cls-2" points="146.42 264.1 128.89 292.19 130.25 269.89 147.79 241.8 146.42 264.1"/><path class="cls-2" d="M149.81,266.22l-17.53,28.1a3.71,3.71,0,0,1-2.4,1.64l17.53-28.1A3.59,3.59,0,0,0,149.81,266.22Z"/><path class="cls-3" d="M151.08,159.22l61.83,91.45-20.49,4.14-12.61-19.47-32,6.46-1.37,22.3-20,4,9.66-105.89Zm-2.43,63,20.15-4.06-18.2-28.63-1.95,32.69"/><polygon class="cls-3" points="146.42 264.1 128.89 292.19 108.86 296.23 126.39 268.14 146.42 264.1"/><path class="cls-2" d="M215,250.25a4.13,4.13,0,0,0,1.47,2.19,3.64,3.64,0,0,1-2.6,2l-20.49,4.14a4.18,4.18,0,0,1-4.29-1.84l-11.06-17.08L151.55,245l-1.2,19.52a3.59,3.59,0,0,1-2.94,3.33l-20,4.05a4.18,4.18,0,0,1-3.55-1,4,4,0,0,1-1.37-3.33l9.67-105.89a3.59,3.59,0,0,1,2.93-3.22l15-3a4.19,4.19,0,0,1,4.24,1.77l59.31,87.71Zm-22.61,4.56,20.49-4.14-61.83-91.45-15,3L126.4,268.14l20-4,1.37-22.3,32-6.46,12.61,19.47"/><path class="cls-2" d="M264.81,17.31a4.19,4.19,0,0,1,4.81,3l5.06,19.24a3.62,3.62,0,0,1-2.83,4.53l-19.71,4,22.65,86.09,26,98.79a3.64,3.64,0,0,1-2.82,4.54l-23.76,4.79a4.17,4.17,0,0,1-3.95-1.37l-43.89-50.78L240.82,245a3.63,3.63,0,0,1-2.83,4.54l-18.16,3.66a4.18,4.18,0,0,1-4.8-3l-1.39-5.31-24.58-93.39a3.62,3.62,0,0,1,2.82-4.52l24.7-5a4.13,4.13,0,0,1,3.93,1.38L263,192.68,251.91,150.4,226.35,53.26l-19.7,4a4.19,4.19,0,0,1-4.81-3l-2.29-8.71-1.42-5.39L196.78,35a3.62,3.62,0,0,1,2.83-4.53Zm6.05,23L265.8,21.07,200.6,34.24l5.06,19.24,23.52-4.75,26.52,100.8,15.19,57.73L217.56,145.8l-24.69,5,26,98.7L237,245.81l-18.48-70.25,54.7,62.94L297,233.7,271,135,247.35,45.06l23.51-4.75"/><polygon class="cls-3" points="265.8 21.07 270.86 40.31 247.35 45.06 271.01 135.01 296.98 233.7 273.22 238.5 218.75 175.51 237 245.81 218.84 249.48 192.87 150.78 217.56 145.8 270.66 207.31 255.7 149.53 229.18 48.73 205.66 53.48 200.59 34.24 265.8 21.07"/><polygon class="cls-2" points="237.99 249.58 220.46 277.67 202.29 281.34 219.83 253.24 237.99 249.58"/><path class="cls-3" d="M34.86,165.29q-.69-3.31-1.43-6.1L51,131.1q.73,2.79,1.42,6.1L34.86,165.29,52.39,137.2a26.71,26.71,0,0,1,.6,6.26,11.13,11.13,0,0,1-1.32,5.18L34.13,176.73l17.54-28.09c-.05.08-.09.16-.14.23L34,177l.13-.22a11.09,11.09,0,0,0,1.33-5.19A27.3,27.3,0,0,0,34.86,165.29Z"/><path class="cls-2" d="M48.19,146.67l-17.54,28.1a7.42,7.42,0,0,0,.87-3.52,23.55,23.55,0,0,0-.52-5.39c-.45-2.15-.91-4.14-1.37-5.9l17.53-28.1c.47,1.77.93,3.76,1.38,5.91a23.55,23.55,0,0,1,.52,5.39A7.58,7.58,0,0,1,48.19,146.67Z"/><path class="cls-2" d="M48.14,146.75,30.61,174.84a.43.43,0,0,1,0-.07l17.54-28.1Z"/><path class="cls-2" d="M69.18,160.62,51.64,188.71a19.24,19.24,0,0,0,2.29-5.25,33.19,33.19,0,0,0,.79-12.13,89.32,89.32,0,0,0-2.5-13.44L69.76,129.8a90.36,90.36,0,0,1,2.5,13.44,33,33,0,0,1-.8,12.13A19.53,19.53,0,0,1,69.18,160.62Z"/><path class="cls-2" d="M51.53,148.87,34,177a6.17,6.17,0,0,1-4.27,2.65,7.84,7.84,0,0,1-6.07-1.42,11.06,11.06,0,0,1-4.35-5.58l17.53-28.09a11.11,11.11,0,0,0,4.35,5.58,7.9,7.9,0,0,0,6.08,1.42A6.13,6.13,0,0,0,51.53,148.87Z"/><polygon class="cls-2" points="213.9 254.44 196.37 282.53 175.87 286.67 193.41 258.58 213.9 254.44"/><polygon class="cls-2" points="189.12 256.74 171.59 284.84 160.52 267.75 178.06 239.66 189.12 256.74"/><polygon class="cls-2" points="36.84 144.52 19.31 172.61 3.94 180.85 21.47 152.76 36.84 144.52"/><path class="cls-2" d="M193.41,258.58l-17.54,28.09a4.16,4.16,0,0,1-4.28-1.83l17.53-28.1A4.18,4.18,0,0,0,193.41,258.58Z"/><path class="cls-3" d="M17.25,196.52Q9,192.31,3.94,180.85l17.53-28.09q5.1,11.44,13.32,15.66L17.25,196.51l17.54-28.09a26.75,26.75,0,0,0,18,2.24q-8.77,14-17.53,28.09L52.8,170.66q8.37-1.69,12.78-5.74L48,193q8.77-14,17.54-28.09a20.78,20.78,0,0,0,3.6-4.3L51.64,188.71A21.09,21.09,0,0,1,48,193q-4.4,4-12.78,5.73A26.81,26.81,0,0,1,17.25,196.52Z"/><path class="cls-3" d="M52.48,64.14,69.76,129.8a90.36,90.36,0,0,1,2.5,13.44,33,33,0,0,1-.8,12.13,19.87,19.87,0,0,1-5.88,9.55Q61.19,169,52.8,170.66a26.75,26.75,0,0,1-18-2.24q-8.2-4.2-13.32-15.66l15.37-8.24a11.11,11.11,0,0,0,4.35,5.58,7.9,7.9,0,0,0,6.08,1.42,6.06,6.06,0,0,0,4.4-2.88A11.13,11.13,0,0,0,53,143.46a26.71,26.71,0,0,0-.6-6.26q-.69-3.31-1.42-6.1L34.32,67.81Z"/><path class="cls-2" d="M72.57,162.73,55,190.82a24.47,24.47,0,0,1-4.21,5.05c-3.42,3.15-8.32,5.38-14.57,6.64a30.82,30.82,0,0,1-20.68-2.62C9.24,196.64,4.12,190.7.34,182.22a3.73,3.73,0,0,1,.2-3.49l17.54-28.09a3.67,3.67,0,0,0-.2,3.49c3.77,8.48,8.89,14.42,15.22,17.67a30.92,30.92,0,0,0,20.69,2.62c6.24-1.26,11.15-3.49,14.56-6.64A24.21,24.21,0,0,0,72.57,162.73Z"/><path class="cls-2" d="M51.49,60.38a4.19,4.19,0,0,1,4.81,3L73.57,129a94.83,94.83,0,0,1,2.6,14,36.71,36.71,0,0,1-.9,13.47,23.44,23.44,0,0,1-6.92,11.26c-3.41,3.15-8.32,5.38-14.56,6.64A30.92,30.92,0,0,1,33.1,171.8c-6.33-3.25-11.45-9.19-15.22-17.67a3.62,3.62,0,0,1,1.56-4.75l15.37-8.25a3.91,3.91,0,0,1,1-.37,4.15,4.15,0,0,1,4.69,2.64A7,7,0,0,0,43.3,147a3.71,3.71,0,0,0,3,.78c1.46-.29,1.78-.86,1.91-1.08a7.58,7.58,0,0,0,.87-3.51,23.55,23.55,0,0,0-.52-5.39c-.45-2.15-.91-4.14-1.38-5.91L30.51,68.58a3.63,3.63,0,0,1,2.82-4.53ZM69.76,129.8,52.48,64.14,34.32,67.81,51,131.1q.73,2.79,1.42,6.1a26.71,26.71,0,0,1,.6,6.26,11.13,11.13,0,0,1-1.32,5.18,6.06,6.06,0,0,1-4.4,2.88,7.9,7.9,0,0,1-6.08-1.42,11.11,11.11,0,0,1-4.35-5.58l-15.37,8.24q5.1,11.44,13.32,15.66a26.75,26.75,0,0,0,18,2.24q8.37-1.69,12.78-5.74a19.87,19.87,0,0,0,5.88-9.55,33,33,0,0,0,.8-12.13,90.36,90.36,0,0,0-2.5-13.44"/><polygon class="cls-2" points="122.47 267.61 104.94 295.7 114.6 189.81 132.14 161.72 122.47 267.61"/><path class="cls-2" d="M120.15,240l-17.54,28.09q1.38-9.88-1.77-21.88-3.56-13.52-10-22.21a46.13,46.13,0,0,0-14.6-13.27,43.94,43.94,0,0,0-17.79-5.45A68.23,68.23,0,0,0,39,206.4l17.54-28.09A68.16,68.16,0,0,1,76,177.16a44,44,0,0,1,17.8,5.45,46.1,46.1,0,0,1,14.59,13.27q6.39,8.7,10,22.21Q121.53,230.09,120.15,240Z"/><polygon class="cls-3" points="63.44 198.06 45.91 226.16 35.19 228.32 52.73 200.22 63.44 198.06"/><path class="cls-3" d="M57.24,225.69a35.51,35.51,0,0,0-11.34.46l17.54-28.09a35.51,35.51,0,0,1,11.34-.46,26.86,26.86,0,0,1,18.84,11q-8.76,14-17.53,28.09,8.76-14.06,17.53-28.09a34.64,34.64,0,0,1,5.59,12.15q-8.76,14.06-17.53,28.09,8.76-14,17.53-28.09a39.34,39.34,0,0,1,1.45,14.61L83.13,263.48a39.5,39.5,0,0,0-1.45-14.6,34.61,34.61,0,0,0-5.59-12.16,26.91,26.91,0,0,0-18.85-11Z"/><polygon class="cls-2" points="64.43 201.82 46.89 229.91 39.99 231.31 57.52 203.21 64.43 201.82"/><polygon class="cls-2" points="77.56 256.86 60.02 284.96 50.59 286.86 68.13 258.77 77.56 256.86"/><path class="cls-2" d="M96.76,234.75l-17.54,28.1a36.14,36.14,0,0,0-1.35-13.21A30.87,30.87,0,0,0,73,238.88a22.77,22.77,0,0,0-16-9.38,31.35,31.35,0,0,0-10.07.41l17.54-28.09a31.29,31.29,0,0,1,10.06-.41,22.67,22.67,0,0,1,16,9.38,31,31,0,0,1,4.92,10.76A36.3,36.3,0,0,1,96.76,234.75Z"/><polygon class="cls-2" points="68.13 258.77 50.59 286.86 35.19 228.32 52.73 200.22 68.13 258.77"/><polygon class="cls-3" points="55.24 282.51 37.7 310.6 11.74 211.91 29.27 183.81 55.24 282.51"/><polygon class="cls-2" points="56.53 178.31 38.99 206.4 11.74 211.91 29.27 183.81 56.53 178.31"/><path class="cls-2" d="M8.35,209.79,25.88,181.7a3.66,3.66,0,0,0-.42,2.88L7.93,212.67A3.67,3.67,0,0,1,8.35,209.79Z"/><path class="cls-3" d="M79.88,273.29a23.43,23.43,0,0,0,3.25-9.81q7.74-12.41,15.49-24.81h0l2-3.28a23.61,23.61,0,0,1-3.24,9.81Z"/><path class="cls-2" d="M94,243.09l-17.53,28.1a20.24,20.24,0,0,0,2.74-8.34l17.54-28.1A20.05,20.05,0,0,1,94,243.09Z"/><path class="cls-2" d="M114.15,257.12,96.62,285.21a43.41,43.41,0,0,0,6-17.15L120.15,240A43.27,43.27,0,0,1,114.15,257.12Z"/><polygon class="cls-2" points="147.41 267.87 129.88 295.96 109.85 300 127.39 271.91 147.41 267.87"/><path class="cls-2" d="M127.39,271.91,109.85,300a4.16,4.16,0,0,1-3.54-1,4,4,0,0,1-1.38-3.33l17.54-28.09a4,4,0,0,0,1.37,3.33A4.18,4.18,0,0,0,127.39,271.91Z"/><path class="cls-3" d="M84.14,297.85l17.54-28.1A40.75,40.75,0,0,0,114,257.37l.15-.25L96.62,285.21l-.16.25A40.67,40.67,0,0,1,84.14,297.85Z"/><path class="cls-2" d="M97.42,245.2,79.88,273.29c-.17.27-.34.53-.52.79a21.94,21.94,0,0,1-8,7A42.39,42.39,0,0,1,60,285l17.54-28.1A42,42,0,0,0,88.86,253a22,22,0,0,0,8-7C97.08,245.73,97.25,245.47,97.42,245.2Z"/><path class="cls-2" d="M85.19,201a27.87,27.87,0,0,1,8.43,7.62,34.64,34.64,0,0,1,5.59,12.15,39.34,39.34,0,0,1,1.45,14.61A22.94,22.94,0,0,1,96.89,246a22,22,0,0,1-8,7,42,42,0,0,1-11.3,3.89l-9.43,1.91-15.4-58.54,10.71-2.17a35.51,35.51,0,0,1,11.34-.46A28,28,0,0,1,85.19,201Zm11.57,33.74a36.3,36.3,0,0,0-1.35-13.2,31,31,0,0,0-4.92-10.76,22.67,22.67,0,0,0-16-9.38,31.29,31.29,0,0,0-10.06.41l-6.91,1.39,13.43,51,5.62-1.13a38.72,38.72,0,0,0,10.29-3.54,18.38,18.38,0,0,0,6.74-5.85,19.67,19.67,0,0,0,3.16-9"/><path class="cls-3" d="M84.14,297.85A47.57,47.57,0,0,1,67.4,304.6l17.54-28.09a47.76,47.76,0,0,0,16.74-6.75L84.14,297.85Z"/><path class="cls-2" d="M117.57,259.2,100,287.29l-.2.31a44.37,44.37,0,0,1-13.39,13.48,51.74,51.74,0,0,1-18,7.29l17.54-28.09A51.93,51.93,0,0,0,104,273a44.48,44.48,0,0,0,13.39-13.48Z"/><path class="cls-3" d="M108.42,195.88q6.39,8.7,10,22.21,3.15,12,1.77,21.88a43.37,43.37,0,0,1-6.15,17.4,40.89,40.89,0,0,1-12.32,12.39,47.76,47.76,0,0,1-16.74,6.75l-29.7,6-26-98.7,27.26-5.5A68.16,68.16,0,0,1,76,177.16a44,44,0,0,1,17.8,5.45A46.1,46.1,0,0,1,108.42,195.88Zm-7.76,39.51a39.34,39.34,0,0,0-1.45-14.61,34.64,34.64,0,0,0-5.59-12.15,26.86,26.86,0,0,0-18.84-11,35.51,35.51,0,0,0-11.34.46l-10.71,2.17,15.4,58.54,9.43-1.91A42,42,0,0,0,88.86,253a22,22,0,0,0,8-7,22.94,22.94,0,0,0,3.77-10.6"/><polygon class="cls-3" points="84.94 276.51 67.4 304.6 37.7 310.6 55.24 282.51 84.94 276.51"/><polygon class="cls-2" points="51.43 283.28 33.9 311.37 7.93 212.67 25.46 184.58 51.43 283.28"/><polygon class="cls-2" points="85.93 280.28 68.39 308.37 38.69 314.37 56.23 286.27 85.93 280.28"/><path class="cls-2" d="M56.23,286.27l-17.54,28.1a4.18,4.18,0,0,1-4.8-3l17.54-28.09A4.17,4.17,0,0,0,56.23,286.27Z"/><path class="cls-2" d="M111.58,193.75c4.55,6.19,8.12,14.12,10.6,23.57a59.55,59.55,0,0,1,1.87,23.37,46.86,46.86,0,0,1-6.68,18.82A44.48,44.48,0,0,1,104,273a51.93,51.93,0,0,1-18,7.29l-29.7,6a4.17,4.17,0,0,1-4.8-3l-26-98.7a3.62,3.62,0,0,1,2.82-4.52l27.26-5.51a72.47,72.47,0,0,1,20.64-1.21,48.3,48.3,0,0,1,19.48,6A50.72,50.72,0,0,1,111.58,193.75ZM120.15,240q1.38-9.9-1.77-21.88-3.57-13.51-10-22.21a46.1,46.1,0,0,0-14.59-13.27A44,44,0,0,0,76,177.16a68.16,68.16,0,0,0-19.5,1.15l-27.26,5.5,26,98.7,29.7-6a47.76,47.76,0,0,0,16.74-6.75A40.89,40.89,0,0,0,114,257.37a43.37,43.37,0,0,0,6.15-17.4"/></g></g></g></svg>